<svg xmlns="http://www.w3.org/2000/svg" width="53.525" height="48.155" viewBox="0 0 53.525 48.155">
  <g id="explore" transform="translate(0 -25.685)">
    <path id="Path_14" data-name="Path 14" d="M50.544,385.311a10.067,10.067,0,0,0-6.68,2.4,8.955,8.955,0,0,1-11.522,0,10.068,10.068,0,0,0-6.68-2.4,10.065,10.065,0,0,0-6.679,2.4,8.64,8.64,0,0,1-5.76,2.1,8.641,8.641,0,0,1-5.76-2.1,10.065,10.065,0,0,0-6.679-2.4.784.784,0,0,0,0,1.568,8.641,8.641,0,0,1,5.761,2.1,10.066,10.066,0,0,0,6.679,2.4,10.065,10.065,0,0,0,6.679-2.4,8.954,8.954,0,0,1,11.521,0,10.508,10.508,0,0,0,13.359,0,8.643,8.643,0,0,1,5.761-2.1.784.784,0,1,0,0-1.568Z" transform="translate(0 -322.031)" fill="#48484b"/>
    <path id="Path_15" data-name="Path 15" d="M50.544,428.314a10.067,10.067,0,0,0-6.68,2.4,8.955,8.955,0,0,1-11.522,0,10.067,10.067,0,0,0-6.68-2.4,10.066,10.066,0,0,0-6.679,2.4,8.64,8.64,0,0,1-5.76,2.1,8.641,8.641,0,0,1-5.76-2.1,10.066,10.066,0,0,0-6.679-2.4.784.784,0,1,0,0,1.568,8.641,8.641,0,0,1,5.761,2.1,10.065,10.065,0,0,0,6.679,2.4,10.066,10.066,0,0,0,6.679-2.4,8.954,8.954,0,0,1,11.521,0,10.508,10.508,0,0,0,13.359,0,8.643,8.643,0,0,1,5.761-2.1.784.784,0,1,0,0-1.568Z" transform="translate(0 -360.538)" fill="#48484b"/>
    <path id="Path_16" data-name="Path 16" d="M148.931,47.427v-.013h0a21.819,21.819,0,0,0-34.752-17.485A22.191,22.191,0,0,0,106.6,39.987a.784.784,0,0,0,1.468.552,20.628,20.628,0,0,1,7.047-9.349,19.944,19.944,0,0,1,11.246-3.924,20.17,20.17,0,0,1,14.765,5.65q.732.7,1.382,1.465a18.089,18.089,0,0,0-24.855,1.334,18.454,18.454,0,0,0-5.09,12.759.784.784,0,0,0,1.568,0,16.892,16.892,0,0,1,4.659-11.679,16.525,16.525,0,0,1,23.512-.486,16.712,16.712,0,0,1,2.948,3.81,9.225,9.225,0,0,0-14.763,7.2,9.064,9.064,0,0,0,.061,1.233.784.784,0,1,0,1.557-.185,7.446,7.446,0,0,1-.051-1.019,7.656,7.656,0,0,1,15.161-1.355,16.934,16.934,0,0,1,.153,2.265.784.784,0,1,0,1.568,0C148.932,48.244,148.931,47.438,148.931,47.427Z" transform="translate(-95.407 0)" fill="#48484b"/>
    <path id="Path_17" data-name="Path 17" d="M.786,200.285a8.641,8.641,0,0,1,5.761,2.1,10.066,10.066,0,0,0,6.679,2.4,10.066,10.066,0,0,0,6.679-2.4,8.954,8.954,0,0,1,11.521,0,10.508,10.508,0,0,0,13.359,0,8.642,8.642,0,0,1,5.761-2.1.784.784,0,0,0,.35-1.486l-1.373-.684a42.4,42.4,0,0,0-7.222-2.732,7.991,7.991,0,0,1-2.925-1.567,7.857,7.857,0,0,1-1.986-2.552.784.784,0,1,0-1.411.683,9.437,9.437,0,0,0,2.385,3.065,9.571,9.571,0,0,0,3.5,1.877,43.14,43.14,0,0,1,5.952,2.15,11.288,11.288,0,0,0-3.951,2.073,8.955,8.955,0,0,1-11.522,0,10.067,10.067,0,0,0-6.68-2.4,10.065,10.065,0,0,0-6.679,2.4,8.64,8.64,0,0,1-5.76,2.1,8.641,8.641,0,0,1-5.761-2.1,11.491,11.491,0,0,0-3.8-2.032l.976-.432a11.255,11.255,0,0,0,6.692-10.284,20.8,20.8,0,0,1,.556-4.773.784.784,0,1,0-1.526-.36,22.359,22.359,0,0,0-.6,5.133,9.686,9.686,0,0,1-5.759,8.85L.469,198.783a.784.784,0,0,0,.317,1.5Z" transform="translate(-0.002 -140.536)" fill="#48484b"/>
  </g>
</svg>
