<svg xmlns="http://www.w3.org/2000/svg" width="64.658" height="18.48" viewBox="0 0 64.658 18.48">
  <g id="Logo" transform="translate(-120.22 -298.325)">
    <g id="Layer_1" data-name="Layer 1" transform="translate(125.226 298.352)">
      <path id="Path_1" data-name="Path 1" d="M153.627,381.666s-4.3,3.369-4.558,3.935l3.482.085Z" transform="translate(-149.069 -367.233)" fill="#1a9199"/>
      <path id="Path_2" data-name="Path 2" d="M161.452,311.641l3.282-12.583,3.665.055,2.462,8.1-2.845.6a25.457,25.457,0,0,1-1.368-5.033l-1.477,6.4Z" transform="translate(-159.303 -298.958)" fill="#1a9199"/>
      <path id="Path_3" data-name="Path 3" d="M203.716,364.121a9.409,9.409,0,0,1,2.708-.757l.637,2.907a19.827,19.827,0,0,0,.438-2.867l3.438-.132-1.73,7.128h-3.7Z" transform="translate(-194.234 -352.03)" fill="#1a9199"/>
      <path id="Path_4" data-name="Path 4" d="M232.625,299.734h3.7l-1.851,7.791-3.548-.077Z" transform="translate(-216.725 -299.517)" fill="#1a9199"/>
      <path id="Path_5" data-name="Path 5" d="M249.317,364.989a30.407,30.407,0,0,0,3.216.971l-1.457,5.7-4.248.182Z" transform="translate(-229.867 -353.449)" fill="#1a9199"/>
      <path id="Path_6" data-name="Path 6" d="M267.115,307.077l3.4-8.193,3.4.121,4.551,12.077-4.248-1.4-2.185-7.282-1.639,5.947Z" transform="translate(-246.633 -298.814)" fill="#1a9199"/>
      <path id="Path_7" data-name="Path 7" d="M314.178,382.052a17.7,17.7,0,0,0,4.308,1.3l1.023,2.572-4.184.062Z" transform="translate(-285.53 -367.552)" fill="#1a9199"/>
      <path id="Path_8" data-name="Path 8" d="M322.162,298.7l4.83,12.866s3,.375,3.164.333.083-1-.208-2.04-3.456-11.075-3.456-11.075Z" transform="translate(-292.129 -298.665)" fill="#1a9199"/>
      <path id="Path_9" data-name="Path 9" d="M374.144,312.49l4.07-12.853h4.07l-4.541,12.125S375.429,312.747,374.144,312.49Z" transform="translate(-335.092 -299.436)" fill="#1a9199"/>
      <path id="Path_10" data-name="Path 10" d="M356.859,392l.857,1.928,3.513-.043.686-2.142S358.016,392.469,356.859,392Z" transform="translate(-320.806 -375.56)" fill="#1a9199"/>
      <path id="Path_11" data-name="Path 11" d="M441.13,298.481l-10.7.127.191,9.233,3.693-2.229v-3.693l6.813-.127Z" transform="translate(-381.614 -298.481)" fill="#1a9199"/>
      <path id="Path_12" data-name="Path 12" d="M441.377,339.855H438.9s-1.989,1.717-4.045,3.259l-.16.119a12.974,12.974,0,0,1-3.839,2.27v5.477h10.526v-3.166l-6.59-.086-.074-4.339.287-.181,6.566.015.045-3.291Z" transform="translate(-381.96 -332.676)" fill="#1a9199"/>
    </g>
    <g id="Layer_2" data-name="Layer 2" transform="translate(120.22 298.325)">
      <path id="Path_13" data-name="Path 13" d="M120.22,298.325l4.563,18.017,2.2-4.957-3.068-12.825Z" transform="translate(-120.22 -298.325)" fill="#1a9199"/>
    </g>
  </g>
</svg>
