<svg xmlns="http://www.w3.org/2000/svg" width="32.435" height="57.264" viewBox="0 0 32.435 57.264">
  <path id="shop" d="M142.6,55.587H132.52a64.8,64.8,0,0,0,5.939-32.8C137.744,14.74,134.85,4.124,127.845.111a.839.839,0,0,0-.834,0c-4.681,2.682-8.173,8.779-9.835,17.169a62.25,62.25,0,0,0,1.1,27.148.839.839,0,0,0,1.624-.422,64.483,64.483,0,0,1-1.383-6.816l17.817-17.817a62.249,62.249,0,0,1-5.681,36.215H124.2a59.707,59.707,0,0,1-3.511-8.822.839.839,0,1,0-1.6.5,61.636,61.636,0,0,0,3.249,8.326h-10.5a.839.839,0,1,0,0,1.678H142.6a.839.839,0,1,0,0-1.678Zm-24.347-20.5c-.225-1.983-.356-3.971-.392-5.934l11.327-11.327A.839.839,0,1,0,128,16.641L117.856,26.782a53.177,53.177,0,0,1,.967-9.177c1.491-7.531,4.614-13.245,8.606-15.787,2.7,1.717,4.935,4.812,6.563,8.828l-4.017,4.017a.839.839,0,1,0,1.186,1.186l3.475-3.475a40.364,40.364,0,0,1,1.34,4.987Z" transform="translate(-111 0)" fill="#48484b"/>
</svg>
