<svg xmlns="http://www.w3.org/2000/svg" width="170.505" height="28.204" viewBox="0 0 170.505 28.204">
  <g id="Group_13" data-name="Group 13" transform="translate(-330.681 -702)">
    <g id="_-favourite-star" data-name="-favourite-star" transform="translate(330.681 702)">
      <path id="Path_23" data-name="Path 23" d="M29.45,11.711a1.317,1.317,0,0,0-1.26-.958h-9.32q-1.332-4.1-2.663-8.2c-.067-.2-.133-.409-.2-.612a.044.044,0,0,1,0-.01,1.371,1.371,0,0,0-.6-.764l-.018-.012a1.283,1.283,0,0,0-.172-.08c-.024-.01-.047-.02-.072-.028s-.029-.014-.044-.018-.057-.008-.086-.014A1.236,1.236,0,0,0,14.87.995c-.035,0-.069,0-.1,0A1.272,1.272,0,0,0,14.608,1c-.029,0-.057.009-.086.014s-.08.009-.12.02c-.022.006-.04.017-.061.024l-.02.008a1.36,1.36,0,0,0-.826.87l0,.011q-1.432,4.4-2.863,8.808H1.307a1.318,1.318,0,0,0-1.259.958,1.343,1.343,0,0,0,.6,1.475l7.436,5.4q-1.35,4.157-2.7,8.314l-.2.612c-.336,1.034.983,2.154,1.919,1.474l7.649-5.557,7.129,5.18.52.377a1.314,1.314,0,0,0,1.918-1.474q-1.449-4.464-2.9-8.927l6.915-5.023.52-.379A1.342,1.342,0,0,0,29.45,11.711ZM15.408,20.7a1.264,1.264,0,0,0-1.319,0l-5.17,3.757,1.755-5.4q.1-.306.2-.612a1.33,1.33,0,0,0-.6-1.474l-4.959-3.6h6.26a1.329,1.329,0,0,0,1.259-.958l1.915-5.894q.857,2.641,1.716,5.281c.067.2.132.408.2.612a1.328,1.328,0,0,0,1.259.958h6.26l-4.437,3.224-.522.379a1.33,1.33,0,0,0-.6,1.474q.976,3.007,1.954,6.013l-4.649-3.378Z" transform="translate(0 -0.991)" fill="#1a9199"/>
    </g>
    <g id="_-favourite-star-2" data-name="-favourite-star" transform="translate(365.933 702)">
      <path id="Path_23-2" data-name="Path 23" d="M29.45,11.711a1.317,1.317,0,0,0-1.26-.958h-9.32q-1.332-4.1-2.663-8.2c-.067-.2-.133-.409-.2-.612a.044.044,0,0,1,0-.01,1.371,1.371,0,0,0-.6-.764l-.018-.012a1.283,1.283,0,0,0-.172-.08c-.024-.01-.047-.02-.072-.028s-.029-.014-.044-.018-.057-.008-.086-.014A1.236,1.236,0,0,0,14.87.995c-.035,0-.069,0-.1,0A1.272,1.272,0,0,0,14.608,1c-.029,0-.057.009-.086.014s-.08.009-.12.02c-.022.006-.04.017-.061.024l-.02.008a1.36,1.36,0,0,0-.826.87l0,.011q-1.432,4.4-2.863,8.808H1.307a1.318,1.318,0,0,0-1.259.958,1.343,1.343,0,0,0,.6,1.475l7.436,5.4q-1.35,4.157-2.7,8.314l-.2.612c-.336,1.034.983,2.154,1.919,1.474l7.649-5.557,7.129,5.18.52.377a1.314,1.314,0,0,0,1.918-1.474q-1.449-4.464-2.9-8.927l6.915-5.023.52-.379A1.342,1.342,0,0,0,29.45,11.711ZM15.408,20.7a1.264,1.264,0,0,0-1.319,0l-5.17,3.757,1.755-5.4q.1-.306.2-.612a1.33,1.33,0,0,0-.6-1.474l-4.959-3.6h6.26a1.329,1.329,0,0,0,1.259-.958l1.915-5.894q.857,2.641,1.716,5.281c.067.2.132.408.2.612a1.328,1.328,0,0,0,1.259.958h6.26l-4.437,3.224-.522.379a1.33,1.33,0,0,0-.6,1.474q.976,3.007,1.954,6.013l-4.649-3.378Z" transform="translate(0 -0.991)" fill="#1a9199"/>
    </g>
    <g id="_-favourite-star-3" data-name="-favourite-star" transform="translate(401.185 702)">
      <path id="Path_23-3" data-name="Path 23" d="M29.45,11.711a1.317,1.317,0,0,0-1.26-.958h-9.32q-1.332-4.1-2.663-8.2c-.067-.2-.133-.409-.2-.612a.044.044,0,0,1,0-.01,1.371,1.371,0,0,0-.6-.764l-.018-.012a1.283,1.283,0,0,0-.172-.08c-.024-.01-.047-.02-.072-.028s-.029-.014-.044-.018-.057-.008-.086-.014A1.236,1.236,0,0,0,14.87.995c-.035,0-.069,0-.1,0A1.272,1.272,0,0,0,14.608,1c-.029,0-.057.009-.086.014s-.08.009-.12.02c-.022.006-.04.017-.061.024l-.02.008a1.36,1.36,0,0,0-.826.87l0,.011q-1.432,4.4-2.863,8.808H1.307a1.318,1.318,0,0,0-1.259.958,1.343,1.343,0,0,0,.6,1.475l7.436,5.4q-1.35,4.157-2.7,8.314l-.2.612c-.336,1.034.983,2.154,1.919,1.474l7.649-5.557,7.129,5.18.52.377a1.314,1.314,0,0,0,1.918-1.474q-1.449-4.464-2.9-8.927l6.915-5.023.52-.379A1.342,1.342,0,0,0,29.45,11.711ZM15.408,20.7a1.264,1.264,0,0,0-1.319,0l-5.17,3.757,1.755-5.4q.1-.306.2-.612a1.33,1.33,0,0,0-.6-1.474l-4.959-3.6h6.26a1.329,1.329,0,0,0,1.259-.958l1.915-5.894q.857,2.641,1.716,5.281c.067.2.132.408.2.612a1.328,1.328,0,0,0,1.259.958h6.26l-4.437,3.224-.522.379a1.33,1.33,0,0,0-.6,1.474q.976,3.007,1.954,6.013l-4.649-3.378Z" transform="translate(0 -0.991)" fill="#1a9199"/>
    </g>
    <g id="_-favourite-star-4" data-name="-favourite-star" transform="translate(436.436 702)">
      <path id="Path_23-4" data-name="Path 23" d="M29.45,11.711a1.317,1.317,0,0,0-1.26-.958h-9.32q-1.332-4.1-2.663-8.2c-.067-.2-.133-.409-.2-.612a.044.044,0,0,1,0-.01,1.371,1.371,0,0,0-.6-.764l-.018-.012a1.283,1.283,0,0,0-.172-.08c-.024-.01-.047-.02-.072-.028s-.029-.014-.044-.018-.057-.008-.086-.014A1.236,1.236,0,0,0,14.87.995c-.035,0-.069,0-.1,0A1.272,1.272,0,0,0,14.608,1c-.029,0-.057.009-.086.014s-.08.009-.12.02c-.022.006-.04.017-.061.024l-.02.008a1.36,1.36,0,0,0-.826.87l0,.011q-1.432,4.4-2.863,8.808H1.307a1.318,1.318,0,0,0-1.259.958,1.343,1.343,0,0,0,.6,1.475l7.436,5.4q-1.35,4.157-2.7,8.314l-.2.612c-.336,1.034.983,2.154,1.919,1.474l7.649-5.557,7.129,5.18.52.377a1.314,1.314,0,0,0,1.918-1.474q-1.449-4.464-2.9-8.927l6.915-5.023.52-.379A1.342,1.342,0,0,0,29.45,11.711ZM15.408,20.7a1.264,1.264,0,0,0-1.319,0l-5.17,3.757,1.755-5.4q.1-.306.2-.612a1.33,1.33,0,0,0-.6-1.474l-4.959-3.6h6.26a1.329,1.329,0,0,0,1.259-.958l1.915-5.894q.857,2.641,1.716,5.281c.067.2.132.408.2.612a1.328,1.328,0,0,0,1.259.958h6.26l-4.437,3.224-.522.379a1.33,1.33,0,0,0-.6,1.474q.976,3.007,1.954,6.013l-4.649-3.378Z" transform="translate(0 -0.991)" fill="#1a9199"/>
    </g>
    <g id="_-favourite-star-5" data-name="-favourite-star" transform="translate(471.688 702)">
      <path id="Path_23-5" data-name="Path 23" d="M29.45,11.711a1.317,1.317,0,0,0-1.26-.958h-9.32q-1.332-4.1-2.663-8.2c-.067-.2-.133-.409-.2-.612a.044.044,0,0,1,0-.01,1.371,1.371,0,0,0-.6-.764l-.018-.012a1.283,1.283,0,0,0-.172-.08c-.024-.01-.047-.02-.072-.028s-.029-.014-.044-.018-.057-.008-.086-.014A1.236,1.236,0,0,0,14.87.995c-.035,0-.069,0-.1,0A1.272,1.272,0,0,0,14.608,1c-.029,0-.057.009-.086.014s-.08.009-.12.02c-.022.006-.04.017-.061.024l-.02.008a1.36,1.36,0,0,0-.826.87l0,.011q-1.432,4.4-2.863,8.808H1.307a1.318,1.318,0,0,0-1.259.958,1.343,1.343,0,0,0,.6,1.475l7.436,5.4q-1.35,4.157-2.7,8.314l-.2.612c-.336,1.034.983,2.154,1.919,1.474l7.649-5.557,7.129,5.18.52.377a1.314,1.314,0,0,0,1.918-1.474q-1.449-4.464-2.9-8.927l6.915-5.023.52-.379A1.342,1.342,0,0,0,29.45,11.711ZM15.408,20.7a1.264,1.264,0,0,0-1.319,0l-5.17,3.757,1.755-5.4q.1-.306.2-.612a1.33,1.33,0,0,0-.6-1.474l-4.959-3.6h6.26a1.329,1.329,0,0,0,1.259-.958l1.915-5.894q.857,2.641,1.716,5.281c.067.2.132.408.2.612a1.328,1.328,0,0,0,1.259.958h6.26l-4.437,3.224-.522.379a1.33,1.33,0,0,0-.6,1.474q.976,3.007,1.954,6.013l-4.649-3.378Z" transform="translate(0 -0.991)" fill="#1a9199"/>
    </g>
  </g>
</svg>
