<svg xmlns="http://www.w3.org/2000/svg" width="70.868" height="50.895" viewBox="0 0 70.868 50.895">
  <g id="travel" transform="translate(0 -72.146)">
    <g id="Group_2" data-name="Group 2" transform="translate(0 72.146)">
      <g id="Group_1" data-name="Group 1">
        <path id="Path_18" data-name="Path 18" d="M68.719,112.089h-.071V99.9a14.311,14.311,0,0,0-.836-4.827L63.828,83.92a4.376,4.376,0,0,0-4.112-2.9H57.552V78.66H69.173a1.692,1.692,0,0,0,.84-3.161,25.488,25.488,0,0,0-12.626-3.353H34.847A25.49,25.49,0,0,0,22.222,75.5a1.692,1.692,0,0,0,.84,3.161H34.4v2.362H11.15a4.376,4.376,0,0,0-4.112,2.9L3.055,95.073A14.312,14.312,0,0,0,2.219,99.9v12.189H2.147A2.15,2.15,0,0,0,0,114.237v2.219A2.15,2.15,0,0,0,2.148,118.6H6.586a2.15,2.15,0,0,0,2.148-2.148v-.071H11.1c0,.024,0,.047,0,.071a6.586,6.586,0,1,0,13.171,0c0-.024,0-.048,0-.071H46.6c0,.024,0,.047,0,.071a6.586,6.586,0,1,0,13.171,0c0-.024,0-.048,0-.071h2.364v.071a2.15,2.15,0,0,0,2.148,2.148h4.438a2.15,2.15,0,0,0,2.148-2.148v-2.219A2.15,2.15,0,0,0,68.719,112.089ZM57.552,74.225a23.417,23.417,0,0,1,10.073,2.36H57.552Zm-21.081,0h19v2.362h-19Zm0,4.438h19v2.362h-19ZM24.609,76.584A23.42,23.42,0,0,1,34.4,74.229v2.356ZM5.01,95.771l2.941-8.234H54.295a1.038,1.038,0,0,0,0-2.076H8.693l.3-.842A2.3,2.3,0,0,1,11.15,83.1H59.716a2.3,2.3,0,0,1,2.157,1.52l.3.842H58.733a1.038,1.038,0,1,0,0,2.076h4.182l2.941,8.234a12.277,12.277,0,0,1,.508,1.894H63.042a3.212,3.212,0,0,0,.065-2.18q-.067-.207-.14-.412L61.891,92.06A3.264,3.264,0,0,0,58.824,89.9H50.967a3.261,3.261,0,0,0-3.257,3.257v3.329a3.238,3.238,0,0,0,.223,1.181H45.125a3.238,3.238,0,0,0,.223-1.181V93.155A3.261,3.261,0,0,0,42.09,89.9H28.776a3.261,3.261,0,0,0-3.257,3.257v3.329a3.238,3.238,0,0,0,.223,1.181H22.935a3.238,3.238,0,0,0,.223-1.181V93.155A3.261,3.261,0,0,0,19.9,89.9H12.042A3.264,3.264,0,0,0,8.975,92.06L7.9,95.072q-.073.205-.14.412a3.213,3.213,0,0,0,.065,2.181H4.5A12.276,12.276,0,0,1,5.01,95.771Zm55.951,1.4a1.178,1.178,0,0,1-.961.49H50.966a1.183,1.183,0,0,1-1.181-1.181V93.155a1.182,1.182,0,0,1,1.181-1.181h7.857a1.183,1.183,0,0,1,1.112.784l1.076,3.013q.063.175.119.351A1.163,1.163,0,0,1,60.961,97.175Zm-17.69-4.019v3.329a1.182,1.182,0,0,1-1.181,1.181H28.776A1.182,1.182,0,0,1,27.6,96.484V93.155a1.182,1.182,0,0,1,1.181-1.181H42.09A1.182,1.182,0,0,1,43.271,93.155Zm-22.19,0v3.329A1.182,1.182,0,0,1,19.9,97.665H10.866a1.177,1.177,0,0,1-.961-.49,1.163,1.163,0,0,1-.17-1.052q.057-.176.119-.351l1.076-3.013a1.183,1.183,0,0,1,1.112-.784H19.9A1.182,1.182,0,0,1,21.081,93.155Zm-14.5,23.372H2.148a.071.071,0,0,1-.071-.071v-2.219a.071.071,0,0,1,.071-.071H6.586a.071.071,0,0,1,.071.071v2.219h0A.072.072,0,0,1,6.586,116.527Zm11.1,4.438a4.51,4.51,0,1,1,4.51-4.51A4.515,4.515,0,0,1,17.681,120.965Zm35.5,0a4.51,4.51,0,1,1,4.51-4.51A4.515,4.515,0,0,1,53.186,120.965Zm8.948-6.729v.071H59.41a6.584,6.584,0,0,0-12.448,0H23.905a6.584,6.584,0,0,0-12.448,0H8.733v-.071a2.15,2.15,0,0,0-2.148-2.148H4.3V99.9c0-.053,0-.106,0-.159H66.568c0,.053,0,.106,0,.159v2.2H66.5a3.257,3.257,0,1,0,0,6.514h.071v3.472h-2.29A2.15,2.15,0,0,0,62.133,114.236Zm4.438-10.057v2.362H66.5a1.181,1.181,0,1,1,0-2.362Zm2.219,12.276a.071.071,0,0,1-.071.071H64.281a.071.071,0,0,1-.071-.071v-2.219a.071.071,0,0,1,.071-.071h4.438a.071.071,0,0,1,.071.071Z" transform="translate(0 -72.146)" fill="#48484b"/>
      </g>
    </g>
    <g id="Group_4" data-name="Group 4" transform="translate(16.648 115.417)">
      <g id="Group_3" data-name="Group 3">
        <path id="Path_19" data-name="Path 19" d="M121.324,384.771h-.011a1.044,1.044,0,1,0,.011,0Z" transform="translate(-120.28 -384.771)" fill="#48484b"/>
      </g>
    </g>
    <g id="Group_6" data-name="Group 6" transform="translate(52.153 115.417)">
      <g id="Group_5" data-name="Group 5">
        <path id="Path_20" data-name="Path 20" d="M377.836,384.771h-.011a1.044,1.044,0,1,0,.011,0Z" transform="translate(-376.792 -384.771)" fill="#48484b"/>
      </g>
    </g>
    <g id="Group_8" data-name="Group 8" transform="translate(48.819 103.213)">
      <g id="Group_7" data-name="Group 7">
        <path id="Path_21" data-name="Path 21" d="M355.961,296.595h-2.219a1.038,1.038,0,0,0,0,2.076h2.219a1.038,1.038,0,1,0,0-2.076Z" transform="translate(-352.704 -296.595)" fill="#48484b"/>
      </g>
    </g>
  </g>
</svg>
